PathFileType	4	(X/Y/Z)	C:/Users/beibeiliu/ov580/test_trc/capture2\sequence.27_training_dense_left.trc
DataRate	CameraRate	NumFrames	NumMarkers	Units	OrigDataRate	OrigDataStartFrame	OrigNumFrames
120	120	7	19	mm	120	87	347
Frame#	Time	ThumbCMC			ThumbMCP			ThumbIP			ThumbTip			IndexMCP			IndexPIP			IndexTip			MiddleMCP			MiddlePIP			MiddleTip			RingMCP			RingPIP			RingTip			PinkyMCP			PinkyPIP			PinkyTip			BackHand1			BackHand2			BackHand3	
		X0	Y0	Z0	X1	Y1	Z1	X2	Y2	Z2	X3	Y3	Z3	X4	Y4	Z4	X5	Y5	Z5	X6	Y6	Z6	X7	Y7	Z7	X8	Y8	Z8	X9	Y9	Z9	X10	Y10	Z10	X11	Y11	Z11	X12	Y12	Z12	X13	Y13	Z13	X14	Y14	Z14	X15	Y15	Z15	X16	Y16	Z16	X17	Y17	Z17	X18	Y18	Z18	
86	0.716667	-166.223	59.4861	13.4222	-135.453	66.8643	-9.00412	-117.879	64.7688	-29.3854	-104.79	42.3008	-47.65	-171.781	30.5676	-53.89	-158.842	34.1743	-81.7822	-133.945	38.9728	-97.5529	-167.676	7.87069	-52.9892	-161.237	5.26298	-80.3782	-146.712	0.737772	-110.964	-152.221	-2.69384	-47.8683	-138.247	-6.2577	-75.1579	-123.882	-3.34837	-94.118	-133.968	-9.04452	-33.9462	-115.791	-3.26046	-54.4213	-93.5771	6.91307	-66.3131	-165.31	-2.4794	3.80351	-174.682	1.6357	27.0635	-190.108	25.8408	9.00334	
87	0.725	-167.03	60.3916	13.5649	-135.755	69.3949	-8.45141	-119.45	61.7697	-28.6385	-104.274	48.4926	-46.0918	-171.687	30.9932	-56.682	-158.793	33.6822	-79.9939	-138.146	39.4208	-99.374	-168.139	10.6988	-56.9833	-160.904	8.1931	-82.4442	-148.264	5.40179	-107.1	-149.285	-4.79229	-46.472	-139.924	-5.25823	-72.2003	-124.513	-2.9523	-96.5448	-130.867	-8.84713	-32.0107	-111.108	-9.21643	-51.9295	-93.232	-3.87309	-67.8226	-164.916	-4.20566	2.41918	-172.086	-0.0247226	31.9573	-188.78	23.1852	9.11141	
88	0.733333	-168.015	59.743	11.6702	-138.137	68.6714	-6.65191	-117.957	66.2506	-31.933	-104.791	44.9343	-43.5628	-171.011	31.9718	-53.8159	-158.483	37.5791	-83.0044	-141.311	38.3784	-99.0414	-163.345	8.48162	-58.0603	-155.796	7.28167	-83.7817	-147.896	7.46371	-106.882	-145.603	-3.26898	-44.2732	-137.399	-4.0711	-69.8135	-123.36	-4.17191	-93.7653	-127.901	-8.08786	-31.126	-111.541	-8.68276	-47.3171	-92.1977	-11.9126	-63.6419	-164.784	-2.00655	3.07389	-170.443	-1.66549	29.8462	-187.006	23.289	4.76056	
89	0.741667	-168.457	58.4886	12.0676	-139.78	68.4713	-6.93409	-120.332	63.1091	-28.971	-106.665	48.8195	-40.8735	-170.207	33.1864	-54.9814	-158.337	38.7495	-81.8266	-144.699	43.6912	-103.313	-162.12	9.82395	-57.9132	-156.083	10.5478	-83.5718	-145.579	6.40134	-107.583	-145.481	-0.266927	-46.8209	-134.116	-4.40852	-70.0147	-122.99	-1.35739	-93.7997	-123.834	-7.85845	-26.9089	-107.961	-7.21411	-46.2505	-92.0666	-9.78505	-66.3426	-160.298	-3.38009	2.99638	-168.556	-2.71387	30.718	-187.467	21.8057	5.24391	
90	0.75	-171.779	59.4523	14.3004	-141.262	65.8178	-6.64081	-119.882	62.1236	-31.3178	-108.383	39.6513	-39.8363	-170.108	30.449	-53.4037	-160.082	36.2755	-77.8104	-142.587	42.3871	-101.21	-161.666	10.7035	-53.0745	-154.391	8.45971	-78.5938	-143.893	4.66863	-107.869	-144.771	1.16147	-44.3719	-132.432	-2.04587	-69.9733	-117.979	-2.41395	-96.3293	-120.246	-6.63453	-30.8729	-109.877	-2.89827	-46.2553	-94.4182	-4.18949	-64.5194	-162.178	-0.320099	2.22858	-166.003	-3.02175	28.9371	-189.68	20.3134	6.83939	
91	0.758333	-175.428	54.4864	13.0078	-144.793	64.7077	-9.36321	-124.938	57.0867	-30.2045	-112.852	34.9387	-37.8213	-171.346	29.3745	-58.422	-158.514	33.9601	-77.9227	-143.356	41.0852	-98.3164	-163.912	7.19178	-52.7802	-154.318	3.67719	-82.6464	-143.972	-1.4199	-106.494	-141.909	-1.30114	-49.9531	-128.762	-1.72743	-68.0198	-115.967	0.537732	-91.6671	-124.728	-2.23945	-28.6776	-108.773	3.72645	-47.7961	-94.6618	6.00557	-68.9152	-161.992	-5.55068	1.17833	-168.483	-6.35409	27.7932	-187.279	14.6769	5.7323	
92	0.766667	-175.239	51.9441	13.9236	-146.179	59.7233	-6.99547	-126.531	51.1666	-32.277	-115.315	27.5873	-35.9912	-171.017	25.8987	-53.9661	-158.628	32.4354	-79.6556	-143.254	37.8952	-95.8795	-160.422	1.85098	-53.2898	-151.655	0.202823	-79.3086	-144.681	-2.9209	-107.798	-139.566	-2.59337	-47.7051	-126.995	-0.238824	-70.3634	-118.271	3.47046	-91.08	-123.188	-3.1448	-31.6123	-111.258	5.78686	-48.5448	-98.1218	12.8843	-70.6828	-158.722	-8.8454	2.73631	-169.796	-6.33594	31.8754	-185.644	10.9092	10.3208	
